<svg width="256" height="256" viewBox="0 0 256 256" fill="none" xmlns="http://www.w3.org/2000/svg">
<rect width="256" height="256" fill="#C8EFFE"/>
<g clip-path="url(#clip0)">
<path d="M208.537 72.2695C213.845 72.2695 218.149 76.5732 218.149 81.882V207.783H37.8503V81.882C37.8503 76.5732 42.1541 72.2695 47.4628 72.2695H208.537Z" fill="#5F99D7"/>
<path d="M74.5169 72.2695H47.4628C42.1541 72.2695 37.8503 76.5732 37.8503 81.882V207.783H64.904V81.882C64.904 76.5732 69.2078 72.2695 74.5169 72.2695Z" fill="#3C87D0"/>
<path d="M60.1943 72.2695H195.805V174.596H60.1943V72.2695Z" fill="#3C87D0"/>
<path d="M206.056 85.9318V188.074C206.056 188.94 205.354 189.643 204.487 189.643H51.5126C50.6463 189.643 49.9437 188.941 49.9437 188.074V85.9318C49.9437 85.0655 50.6459 84.3628 51.5126 84.3628H204.487C205.354 84.3632 206.056 85.0655 206.056 85.9318V85.9318Z" fill="#DFF6FD"/>
<path d="M64.904 84.3632H51.5126C50.6463 84.3632 49.9437 85.0655 49.9437 85.9322V188.074C49.9437 188.94 50.6459 189.643 51.5126 189.643H64.904V84.3632Z" fill="#C8EFFE"/>
<path d="M217.138 216.899H38.8622C32.8633 216.899 28 212.036 28 206.037V203.514C28 202.532 28.7958 201.736 29.7778 201.736H226.222C227.204 201.736 228 202.532 228 203.514V206.037C228 212.036 223.137 216.899 217.138 216.899Z" fill="#7BACDF"/>
<path d="M63.2746 206.037V203.514C63.2746 202.532 64.0703 201.736 65.0523 201.736H29.7778C28.7958 201.736 28 202.532 28 203.514V206.037C28 212.036 32.8633 216.899 38.8622 216.899H74.1367C68.1379 216.899 63.2746 212.036 63.2746 206.037V206.037Z" fill="#5F99D7"/>
<path d="M60.1943 84.3632H195.805V189.643H60.1943V84.3632Z" fill="#99E6FC"/>
<path d="M187.743 189.643V66.5685C187.743 63.7426 185.453 61.4529 182.627 61.4529H73.3724C70.5465 61.4529 68.2568 63.7426 68.2568 66.5685V189.643H187.743V189.643Z" fill="#DFF6FD"/>
<path d="M107.43 94.4857H114.423L119.209 99.2716C121.557 101.62 124.679 102.913 128 102.913C131.321 102.913 134.443 101.62 136.792 99.2712L141.577 94.4857H148.57C159.612 94.4857 168.596 85.5016 168.596 74.4589V61.4529H87.4036V74.4589C87.4036 85.5016 96.3876 94.4857 107.43 94.4857V94.4857Z" fill="#C8EFFE"/>
<path d="M148.57 39.1013H107.43C100.823 39.1013 95.4665 44.4576 95.4665 51.0652V74.4597C95.4665 81.0673 100.823 86.4236 107.43 86.4236H117.763L124.91 93.5706C126.616 95.2771 129.383 95.2771 131.09 93.5706L138.237 86.4236H148.57C155.177 86.4236 160.534 81.0673 160.534 74.4597V51.0652C160.534 44.4576 155.177 39.1013 148.57 39.1013V39.1013Z" fill="#F37C7C"/>
<path d="M110.99 76.4132V51.07C110.99 45.675 114.034 41.0515 118.361 39.1004H107.43C100.823 39.1004 95.4665 44.4567 95.4665 51.0643V74.4589C95.4665 81.0665 100.823 86.4228 107.43 86.4228H115.354C112.689 84.046 110.99 80.4449 110.99 76.4132V76.4132Z" fill="#EE6161"/>
<path d="M130.044 77.1803L141.124 66.0997C144.323 62.9009 144.323 57.7143 141.124 54.5151C137.926 51.3163 132.739 51.3163 129.54 54.5151L128.147 55.9083L126.458 54.2857C123.242 51.1958 118.144 51.2466 114.99 54.4002L114.875 54.5151C111.676 57.7139 111.676 62.9005 114.875 66.0997L125.956 77.1803C127.085 78.3091 128.915 78.3091 130.044 77.1803V77.1803Z" fill="#F3F0F3"/>
<path d="M102.427 142.912C113.051 142.912 121.663 134.3 121.663 123.676C121.663 113.052 113.051 104.44 102.427 104.44C91.8035 104.44 83.1913 113.052 83.1913 123.676C83.1913 134.3 91.8035 142.912 102.427 142.912Z" fill="#C8EFFE"/>
<path d="M171.416 126.699H135.398C133.728 126.699 132.374 125.346 132.374 123.676C132.374 122.006 133.728 120.652 135.398 120.652H171.416C173.086 120.652 174.44 122.006 174.44 123.676C174.44 125.346 173.086 126.699 171.416 126.699Z" fill="#C8EFFE"/>
<path d="M95.4661 163.915H90.7906C89.1209 163.915 87.7672 162.561 87.7672 160.891C87.7672 159.221 89.1209 157.868 90.7906 157.868H95.4665C97.1362 157.868 98.4899 159.221 98.4899 160.891C98.4899 162.561 97.1358 163.915 95.4661 163.915V163.915Z" fill="#C8EFFE"/>
<path d="M165.612 163.915H160.937C159.267 163.915 157.913 162.561 157.913 160.891C157.913 159.221 159.267 157.868 160.937 157.868H165.612C167.282 157.868 168.636 159.221 168.636 160.891C168.636 162.561 167.282 163.915 165.612 163.915Z" fill="#C8EFFE"/>
<path d="M149.528 163.915H106.306C104.636 163.915 103.283 162.561 103.283 160.891C103.283 159.221 104.636 157.868 106.306 157.868H149.528C151.198 157.868 152.552 159.221 152.552 160.891C152.552 162.561 151.198 163.915 149.528 163.915Z" fill="#C8EFFE"/>
<path d="M171.416 189.643V176.913C171.416 175.633 170.379 174.595 169.099 174.595H86.9013C85.6214 174.595 84.5837 175.633 84.5837 176.913V189.643H171.416Z" fill="#C8EFFE"/>
</g>
<defs>
<clipPath id="clip0">
<rect width="200" height="200" fill="white" transform="translate(28 28)"/>
</clipPath>
</defs>
</svg>
